<mxfile host="app.diagrams.net" agent="Mozilla/5.0 (X11; Ubuntu; Linux x86_64; rv:130.0) Gecko/20100101 Firefox/130.0" version="24.8.2">
  <diagram name="PÃ¡gina-1" id="2_8eKZ011uhs4cqaOpUg">
    <mxGraphModel dx="1901" dy="613" grid="1" gridSize="10" guides="1" tooltips="1" connect="1" arrows="1" fold="1" page="1" pageScale="1" pageWidth="827" pageHeight="1169" math="0" shadow="0">
      <root>
        <mxCell id="0" />
        <mxCell id="1" parent="0" />
        <mxCell id="zs9UZvUPz7IHglem64sA-1" value="" style="endArrow=none;html=1;rounded=0;curved=0;strokeWidth=3;exitX=1.011;exitY=0.356;exitDx=0;exitDy=0;exitPerimeter=0;" edge="1" parent="1" source="zs9UZvUPz7IHglem64sA-3">
          <mxGeometry width="50" height="50" relative="1" as="geometry">
            <mxPoint x="119" y="42" as="sourcePoint" />
            <mxPoint x="839" y="42" as="targetPoint" />
          </mxGeometry>
        </mxCell>
        <mxCell id="zs9UZvUPz7IHglem64sA-3" value="" style="ellipse;whiteSpace=wrap;html=1;aspect=fixed;" vertex="1" parent="1">
          <mxGeometry x="10" y="10" width="90" height="90" as="geometry" />
        </mxCell>
        <mxCell id="zs9UZvUPz7IHglem64sA-8" value="" style="image;sketch=0;aspect=fixed;html=1;points=[];align=center;fontSize=12;image=img/lib/mscae/Person.svg;" vertex="1" parent="1">
          <mxGeometry x="800" y="10" width="17" height="22.97" as="geometry" />
        </mxCell>
        <mxCell id="zs9UZvUPz7IHglem64sA-10" value="" style="rounded=1;whiteSpace=wrap;html=1;" vertex="1" parent="1">
          <mxGeometry x="550" y="12.969999999999999" width="230" height="20" as="geometry" />
        </mxCell>
        <mxCell id="zs9UZvUPz7IHglem64sA-11" value="New" style="rounded=1;whiteSpace=wrap;html=1;" vertex="1" parent="1">
          <mxGeometry x="170" y="60" width="100" height="20" as="geometry" />
        </mxCell>
        <mxCell id="zs9UZvUPz7IHglem64sA-12" value="Blog" style="rounded=1;whiteSpace=wrap;html=1;" vertex="1" parent="1">
          <mxGeometry x="290" y="60" width="100" height="20" as="geometry" />
        </mxCell>
        <mxCell id="zs9UZvUPz7IHglem64sA-13" value="Shop" style="rounded=1;whiteSpace=wrap;html=1;" vertex="1" parent="1">
          <mxGeometry x="414" y="60" width="100" height="20" as="geometry" />
        </mxCell>
        <mxCell id="zs9UZvUPz7IHglem64sA-14" value="About" style="rounded=1;whiteSpace=wrap;html=1;" vertex="1" parent="1">
          <mxGeometry x="540" y="60" width="100" height="20" as="geometry" />
        </mxCell>
        <mxCell id="zs9UZvUPz7IHglem64sA-15" value="Contact" style="rounded=1;whiteSpace=wrap;html=1;" vertex="1" parent="1">
          <mxGeometry x="670" y="60" width="100" height="20" as="geometry" />
        </mxCell>
        <mxCell id="zs9UZvUPz7IHglem64sA-16" value="" style="endArrow=none;dashed=1;html=1;dashPattern=1 3;strokeWidth=2;rounded=0;" edge="1" parent="1">
          <mxGeometry width="50" height="50" relative="1" as="geometry">
            <mxPoint y="120" as="sourcePoint" />
            <mxPoint x="840" y="120" as="targetPoint" />
          </mxGeometry>
        </mxCell>
        <mxCell id="zs9UZvUPz7IHglem64sA-17" value="" style="endArrow=none;dashed=1;html=1;dashPattern=1 3;strokeWidth=2;rounded=0;" edge="1" parent="1">
          <mxGeometry width="50" height="50" relative="1" as="geometry">
            <mxPoint y="630" as="sourcePoint" />
            <mxPoint x="840" y="630" as="targetPoint" />
          </mxGeometry>
        </mxCell>
      </root>
    </mxGraphModel>
  </diagram>
</mxfile>
